<?xml version="1.0" encoding="utf-8"?>
<svg viewBox="479.188 250.16 468.682 306.35" xmlns="http://www.w3.org/2000/svg" xmlns:xlink="http://www.w3.org/1999/xlink" xmlns:bx="https://boxy-svg.com">
  <defs>
    <linearGradient id="gradient-2-1" x1="746.064" x2="746.064" y1="267.661" y2="348.227" gradientUnits="userSpaceOnUse" spreadMethod="pad" xlink:href="#gradient-2"/>
    <linearGradient id="gradient-2" bx:pinned="true">
      <stop offset="0" style="stop-color:#0193e9"/>
      <stop offset="1" style="stop-color:#4dbdff"/>
    </linearGradient>
    <linearGradient id="gradient-2-2" x1="746.065" x2="746.065" y1="250.16" y2="365.726" gradientUnits="userSpaceOnUse" spreadMethod="pad" xlink:href="#gradient-2"/>
    <linearGradient id="gradient-1-0" x1="881.303" x2="881.303" y1="478.146" y2="500.472" gradientUnits="userSpaceOnUse" spreadMethod="pad" xlink:href="#gradient-1"/>
    <linearGradient id="gradient-1" bx:pinned="true">
      <stop offset="0" style="stop-color:#f14483"/>
      <stop offset="1" style="stop-color:#f78eb4"/>
    </linearGradient>
    <linearGradient id="gradient-1-1" x1="675.698" x2="675.698" y1="372.03" y2="548.594" gradientUnits="userSpaceOnUse" spreadMethod="pad" xlink:href="#gradient-1"/>
    <linearGradient id="gradient-1-2" x1="795.754" x2="795.754" y1="462.131" y2="483.577" gradientUnits="userSpaceOnUse" spreadMethod="pad" xlink:href="#gradient-1"/>
    <linearGradient id="gradient-1-3" x1="769.539" x2="769.539" y1="451.508" y2="463.942" gradientUnits="userSpaceOnUse" spreadMethod="pad" xlink:href="#gradient-1"/>
    <linearGradient id="gradient-1-4" x1="785.309" x2="785.309" y1="443.978" y2="456.583" gradientUnits="userSpaceOnUse" spreadMethod="pad" xlink:href="#gradient-1"/>
    <linearGradient id="gradient-1-5" x1="833.724" x2="833.724" y1="401.065" y2="438.976" gradientUnits="userSpaceOnUse" spreadMethod="pad" xlink:href="#gradient-1"/>
    <linearGradient id="gradient-1-6" x1="844.866" x2="844.866" y1="329.443" y2="373.226" gradientUnits="userSpaceOnUse" spreadMethod="pad" xlink:href="#gradient-1"/>
    <linearGradient id="gradient-1-7" x1="859.208" x2="859.208" y1="260.43" y2="507.317" gradientUnits="userSpaceOnUse" spreadMethod="pad" xlink:href="#gradient-1"/>
    <linearGradient id="gradient-1-8" x1="877.455" x2="877.455" y1="331.038" y2="375.361" gradientUnits="userSpaceOnUse" spreadMethod="pad" xlink:href="#gradient-1"/>
    <linearGradient id="gradient-1-9" x1="859.019" x2="859.019" y1="364.825" y2="423.389" gradientUnits="userSpaceOnUse" spreadMethod="pad" xlink:href="#gradient-1"/>
    <linearGradient id="gradient-1-10" x1="867.823" x2="867.823" y1="287.65" y2="309.347" gradientUnits="userSpaceOnUse" spreadMethod="pad" xlink:href="#gradient-1"/>
    <linearGradient id="gradient-1-11" x1="790.163" x2="790.163" y1="415.798" y2="439.169" gradientUnits="userSpaceOnUse" spreadMethod="pad" xlink:href="#gradient-1"/>
    <linearGradient id="gradient-1-12" x1="845.483" x2="845.483" y1="414.932" y2="477.262" gradientUnits="userSpaceOnUse" spreadMethod="pad" xlink:href="#gradient-1"/>
    <linearGradient id="gradient-0-0" x1="712.642" x2="712.642" y1="260.431" y2="548.597" gradientUnits="userSpaceOnUse" spreadMethod="pad" xlink:href="#gradient-0"/>
    <linearGradient id="gradient-0" bx:pinned="true">
      <stop offset="0" style="stop-color:rgba(241,68,131,.38)"/>
      <stop offset="1" style="stop-color:#f7b8cf"/>
    </linearGradient>
    <linearGradient id="gradient-2-3" x1="743.987" x2="743.987" y1="291.677" y2="328.644" gradientUnits="userSpaceOnUse" xlink:href="#gradient-2"/>
    <linearGradient id="gradient-2-0" x1="743.987" x2="743.987" y1="291.677" y2="328.644" gradientUnits="userSpaceOnUse" spreadMethod="pad" xlink:href="#gradient-2"/>
    <linearGradient id="gradient-1-14" x1="816.109" x2="816.109" y1="365.798" y2="403.033" gradientUnits="userSpaceOnUse" xlink:href="#gradient-1"/>
    <linearGradient id="gradient-1-13" x1="816.109" x2="816.109" y1="365.798" y2="403.033" gradientUnits="userSpaceOnUse" spreadMethod="pad" xlink:href="#gradient-1"/>
    <style bx:fonts="Abyssinica SIL">@import url(https://fonts.googleapis.com/css2?family=Abyssinica+SIL%3Aital%2Cwght%400%2C400&amp;display=swap);</style>
  </defs>
  <g id="_x32_D_x24_AG-DETAILS-DIAGRAM" transform="matrix(1, 0, 0, 1, -4.114136219024715, 6.304016113281278)">
    <path id="POLYLINE_3666_" stroke-dasharray="3.012 6.024" stroke-linecap="round" stroke-linejoin="round" d="M786.344 307.944c.032-13.519-6.915-26.356-18.251-33.724-20.714-13.472-48.443-5.413-58.709 17.062-4.799 10.483-4.799 22.841 0 33.324 10.267 22.475 37.996 30.534 58.709 17.062 11.335-7.368 18.283-20.204 18.251-33.724z" style="--darkreader-inline-stroke:#c44aff; fill-rule: evenodd; fill: none; stroke: url('#gradient-2-1'); stroke-width: 3.5px; paint-order: fill;"/>
    <path id="POLYLINE_3665_" stroke-dasharray="3.0251 6.0501" stroke-linecap="round" stroke-linejoin="round" d="M803.844 307.944c.034-19.42-9.902-37.781-26.179-48.375-29.734-19.322-69.468-7.774-84.214 24.474-6.886 15.064-6.886 32.736 0 47.8 14.746 32.249 54.481 43.796 84.214 24.474 16.276-10.592 26.213-28.952 26.179-48.373z" style="--darkreader-inline-stroke:#c44aff; fill-rule: evenodd; fill: none; stroke: url('#gradient-2-2'); stroke-width: 3.5px; paint-order: fill;"/>
  </g>
  <path stroke-miterlimit="10" d="M873.148 500.472c6.491-6.568 12.031-14.141 16.309-22.326" style="--darkreader-inline-stroke:#c44aff; fill-rule: evenodd; fill: none; stroke-linejoin: bevel; stroke-linecap: round; stroke: url('#gradient-1-0'); stroke-width: 3.5px; paint-order: fill;" transform="matrix(1, 0, 0, 1, 0, 2.842170943040401e-14)"/>
  <path id="POLYLINE_3181_" stroke-miterlimit="10" d="M848.117 499.864c-21.518 14.973-45.223 28.228-71.382 32.545-7.008 1.226-14.551 1.817-21.667 2.179-10.762.521-22.156.59-32.921.184-27.373-1.109-55.047-4.788-81.117-13.44-12.701-4.318-25.321-9.932-35.504-18.838-7.25-6.396-13.267-14.573-15.878-23.972-.976-3.516-1.415-7.192-1.25-10.839.21-4.949 1.458-9.842 2.934-14.552 2.399-7.563 5.562-14.99 9.077-22.099 3.781-7.729 10.069-18.212 13.846-25.968 1.31-2.83 2.553-5.802 2.795-8.942.132-1.721-.118-3.456-.572-5.115-.693-2.557-1.963-4.961-3.709-6.956-2.07-2.387-4.768-4.156-7.621-5.472-3.544-1.63-7.363-2.685-11.166-3.515-6.477-1.382-13.256-2.181-19.861-2.645-7.669-.517-15.594-.542-23.259.068-20.198 1.712-42.182 7.138-55.689 23.352-3.597 4.352-6.244 9.514-7.495 15.029-.785 3.372-1.059 6.874-1.027 10.331.05 3.832.462 7.724 1.306 11.464.509 2.19 1.148 4.387 2.164 6.4.559 1.088 1.261 2.138 2.221 2.913.65.526 1.426.896 2.25 1.046 1.302.242 2.638-.017 3.883-.413 2.108-.702 4.128-1.734 6.059-2.827 4.101-2.359 7.778-5.46 10.952-8.96 7.376-8.231 13.524-19.931 20.835-28.219 3.775-4.317 8.244-8.107 13.376-10.708 9.483-4.85 23.002-6.891 33.391-4.331 4.466 1.118 8.812 3.107 12.228 6.24 2.124 1.951 3.824 4.432 4.474 7.27 1.428 6.218-1.729 12.289-5.016 17.372-3.148 4.725-7.118 10.478-9.794 15.424-2.871 5.248-5.367 10.79-7.115 16.516-1.934 6.299-2.875 12.944-2.676 19.533.145 4.529.819 9.094 2.255 13.399 1.793 5.453 4.848 10.427 8.346 14.947 2.963 3.829 6.245 7.586 9.687 10.993 10.516 10.468 23.581 18.211 37.384 23.517 10.723 4.125 22.131 6.914 33.393 9.139 24.637 4.848 50.121 6.923 75.22 6.657 14.081-.181 28.526-.908 42.429-3.207 19.536-3.216 38.583-9.931 55.76-19.786 8.965-5.129 17.403-11.389 25.085-18.286" style="--darkreader-inline-stroke:#c44aff; fill-rule: evenodd; fill: none; stroke-linejoin: bevel; stroke-linecap: round; stroke: url('#gradient-1-1'); stroke-width: 3.5px; paint-order: fill;" transform="matrix(1, 0, 0, 1, 0, 2.842170943040401e-14)"/>
  <path id="POLYLINE_3180_" stroke-miterlimit="10" d="M760.08 462.131c-.096 1.507-.159 3.053.042 4.552.108.759.29 1.528.682 2.195.21.358.488.677.814.935.422.337.918.583 1.404.813 2.366 1.112 5.079 1.566 7.656 1.026 2.259-.425 4.581-1.479 6.771-2.159.952-.29 1.961-.394 2.95-.274 1.676.193 3.402.749 5.021 1.216 12.984 4.139 33.054 9.089 46.098 13.142" style="--darkreader-inline-stroke:#c44aff; fill-rule: evenodd; fill: none; stroke-linejoin: bevel; stroke-linecap: round; stroke: url('#gradient-1-2'); stroke-width: 3.5px; paint-order: fill;" transform="matrix(1, 0, 0, 1, 0, 2.842170943040401e-14)"/>
  <path id="POLYLINE_3179_" stroke-miterlimit="10" d="M762.369 451.508c-1.42.469-2.923 1.095-3.874 2.298-.272.351-.481.752-.612 1.176-.149.476-.203.979-.216 1.476-.015.781.019 1.577.178 2.343.184.905.579 1.777 1.208 2.46.864.944 2.059 1.512 3.258 1.907 2.036.652 4.208.827 6.336.761 3.408-.119 9.359-1.023 12.768-1.306" style="--darkreader-inline-stroke:#c44aff; fill-rule: evenodd; fill: none; stroke-linejoin: bevel; stroke-linecap: round; stroke: url('#gradient-1-3'); stroke-width: 3.5px; paint-order: fill;" transform="matrix(1, 0, 0, 1, 0, 2.842170943040401e-14)"/>
  <path id="POLYLINE_3178_" stroke-miterlimit="10" d="m808.527 456.583-25.965-8.796c-4.098-1.264-8.902-3.003-13.112-3.684-1.602-.214-3.332-.221-4.808.519-.529.27-1.005.651-1.376 1.115-.388.482-.664 1.049-.851 1.637-.326 1.032-.401 2.142-.245 3.212.132.893.429 1.774.931 2.528.815 1.247 2.213 1.947 3.61 2.345 1.63.466 3.35.666 5.037.796 2.923.211 6.112.176 9.048.13" style="--darkreader-inline-stroke:#c44aff; fill-rule: evenodd; fill: none; stroke-linejoin: bevel; stroke-linecap: round; stroke: url('#gradient-1-4'); stroke-width: 3.5px; paint-order: fill;" transform="matrix(1, 0, 0, 1, 0, 2.842170943040401e-14)"/>
  <path id="POLYLINE_3177_" stroke-miterlimit="10" d="M823.552 438.976c-1.351-4.961-2.457-10.094-2.75-15.236-.263-4.482.208-9.08 1.978-13.238 1.078-2.608 2.64-5.117 4.962-6.786 2.693-1.955 6.09-2.658 9.371-2.651 3.201-.004 6.455.494 9.6 1.061" style="--darkreader-inline-stroke:#c44aff; fill-rule: evenodd; fill: none; stroke-linejoin: bevel; stroke-linecap: round; stroke: url('#gradient-1-5'); stroke-width: 3.5px; paint-order: fill;" transform="matrix(1, 0, 0, 1, 0, 2.842170943040401e-14)"/>
  <path id="POLYLINE_3176_" stroke-miterlimit="10" d="M868.654 373.226c-7.341-2.554-14.537-5.756-21.116-9.913-2.401-1.513-4.816-3.237-7.047-4.995-1.799-1.384-5.126-4.313-6.879-5.817-1.095-.911-2.23-1.842-3.509-2.481-.872-.434-1.819-.723-2.783-.857-1.216-.183-2.517-.083-3.739.02-.637.034-1.299.086-1.924-.068-.168-.047-.339-.119-.455-.254-.095-.108-.138-.256-.121-.398.041-.315.248-.578.449-.812 1.043-1.108 2.613-2.045 3.781-3.017.232-.2.484-.398.667-.646.055-.079.096-.169.108-.265.019-.148-.031-.296-.099-.426-.255-.45-.661-.811-1.025-1.173l-1.47-1.367c-.506-.489-1.03-.996-1.441-1.568-.128-.184-.252-.38-.315-.597-.035-.122-.042-.255.002-.376.045-.127.14-.23.244-.313.271-.207.598-.33.918-.437.87-.285 1.876-.384 2.786-.478.596-.078 1.255-.139 1.784-.444.146-.088.274-.208.36-.356.122-.208.164-.453.17-.692.012-.521-.132-1.09-.232-1.6-.2-1.018-.351-2.074-.392-3.111-.005-.265.004-.535.068-.793.033-.126.075-.253.151-.36.064-.091.161-.16.272-.18.167-.03.337.022.491.086.248.106.477.259.694.417.558.405 1.13.929 1.644 1.39.664.613 2.259 2.115 2.933 2.751 1.193 1.107 2.527 2.12 4.084 2.646.716.248 1.477.404 2.223.531 2.808.449 6.072.662 8.917.895" style="--darkreader-inline-stroke:#c44aff; fill-rule: evenodd; fill: none; stroke-linejoin: bevel; stroke-linecap: round; stroke: url('#gradient-1-6'); stroke-width: 3.5px; paint-order: fill;" transform="matrix(1, 0, 0, 1, 0, 2.842170943040401e-14)"/>
  <path id="POLYLINE_3175_" stroke-miterlimit="10" d="M782.119 427.118c-.772 1.266-1.491 2.596-1.94 4.013-.361 1.131-.528 2.352-.286 3.525.104.516.257 1.032.528 1.486.417.707 1.083 1.221 1.765 1.657 1.711 1.085 5.478 2.677 7.367 3.581 2.687 1.275 5.395 2.653 7.809 4.4 1.426 1.027 2.801 2.218 4.074 3.431 3.139 3.026 7.072 7.387 10.084 10.587 4.333 4.701 9.218 10.106 13.216 15.06 3.737 4.604 8.498 11.248 12.469 15.618 3.427 3.829 7.439 7.145 11.746 9.938 3.046 1.971 6.261 3.75 9.602 5.168 1.786.741 3.652 1.407 5.578 1.653 1.559.202 3.206.054 4.613-.687 1.816-.938 3.001-2.726 3.806-4.553.97-2.209 1.533-4.625 2.061-6.972l1.531-7.66c.333-1.495.665-3.017 1.342-4.397.332-.669.767-1.29 1.282-1.831 1.097-1.172 2.63-1.794 4.161-2.169 2.712-.671 6.386-.734 9.171-1.077 4.293-.471 8.591-1.41 12.538-3.199 9.044-4.123 16.411-11.445 21.548-19.874 6.635-10.996 9.811-23.739 11.427-36.38 1.151-9.541 1.502-19.3.166-28.84-1.055-7.455-3.558-14.684-6.944-21.393-3.279-6.664-10.453-18.592-13.79-25.248-.633-1.28-1.259-2.667-1.724-4.018-.36-1.05-.623-2.154-.682-3.265-.032-.53-.024-1.078.072-1.602.152-.855.529-1.657.976-2.397 1.06-1.748 2.712-3.55 3.971-5.134 1.803-2.235 3.567-4.598 4.754-7.227 1.341-2.985 1.819-6.316 1.639-9.571-.165-3.216-1.04-6.382-2.426-9.283-.329-.716-1.018-2.017-1.263-2.727-.082-.241-.146-.489-.169-.743-.022-.234-.011-.471.026-.703.064-.401.196-.799.338-1.179.886-2.242 2.582-5.632 3.452-7.867.683-1.699 1.289-3.468 1.653-5.264.335-1.626.479-3.306.453-4.965-.049-2.64-.453-5.309-.983-7.892-.425-1.934-.884-3.926-1.656-5.755-.32-.725-.723-1.442-1.331-1.965-1.084-.933-2.605-1.035-3.972-.939-1.016.069-2.065.252-3.065.449-3.181.624-10.162 2.615-13.381 3.457-1.179.305-2.567.67-3.776.797-.487.048-.984.043-1.471-.008-.822-.084-3.457-.594-4.274-.731-5.571-.911-11.289-1.527-16.939-1.339-4.862.175-9.777.984-14.266 2.915-5.081 2.181-9.504 5.81-12.799 10.236-2.471 3.329-4.339 7.106-5.713 11.009-1.074 3.068-1.839 6.275-2.098 9.52-.156 1.566-.111 3.582-.169 5.159-.017.306-.047.627-.12.926-.079.329-.232.642-.458.894-.472.519-1.113.85-1.716 1.191l-5.951 3.104c-1.04.567-2.148 1.176-3.134 1.83-.505.339-1.01.702-1.43 1.144-.278.293-.516.633-.659 1.012-.145.378-.196.787-.194 1.19.005.673.132 1.353.262 2.012.362 1.742.879 3.511 1.439 5.199.661 1.932 1.382 3.903 2.4 5.679.695 1.207 1.585 2.311 2.548 3.313 2.079 2.119 4.356 4.116 6.895 5.667 3.971 2.436 8.502 3.837 13.068 4.642" style="--darkreader-inline-stroke:#c44aff; fill-rule: evenodd; fill: none; stroke-linejoin: bevel; stroke-linecap: round; stroke: url('#gradient-1-7'); stroke-width: 3.5px; paint-order: fill;" transform="matrix(1, 0, 0, 1, 0, 2.842170943040401e-14)"/>
  <path id="POLYLINE_3174_" stroke-miterlimit="10" d="M897.916 375.361c-7-1.011-14.034-2.873-20.118-6.578-2.791-1.69-5.325-3.817-7.58-6.17-1.781-1.838-5.736-6.229-7.602-7.846-.407-.348-.838-.682-1.308-.943-.465-.26-.977-.443-1.506-.509-.372-.049-.756-.044-1.13-.021-1.563.106-3.187.275-4.75.134-.275-.036-.555-.095-.795-.239-.197-.118-.361-.29-.477-.487-.192-.323-.205-.705-.048-1.046.104-.232.267-.434.446-.613.346-.346.757-.644 1.155-.929 1.016-.716 2.276-1.467 3.065-2.435.152-.194.307-.398.393-.631.033-.096.041-.201.016-.299-.033-.136-.112-.257-.197-.366-.313-.38-.721-.686-1.104-.99-1.055-.849-2.875-2.054-3.8-3.019-.166-.178-.329-.368-.424-.594-.063-.148-.081-.32-.019-.471.085-.211.27-.36.453-.485.563-.362 1.221-.594 1.844-.833 1.216-.465 2.951-.946 4.101-1.535.228-.128.451-.283.597-.504.235-.361.229-.817.253-1.233.057-1.377-.087-2.912.313-4.246.116-.37.285-.73.538-1.026.128-.15.28-.287.466-.359.377-.15.772.064 1.058.307.266.223.492.497.704.77 1.366 1.787 2.486 4.034 4.28 5.443.662.513 1.427.885 2.214 1.162.899.317 1.863.538 2.797.729 9.198 1.687 21.882 4.85 31.065 7.078" style="--darkreader-inline-stroke:#c44aff; fill-rule: evenodd; fill: none; stroke-linejoin: bevel; stroke-linecap: round; stroke: url('#gradient-1-8'); stroke-width: 3.5px; paint-order: fill;" transform="matrix(1, 0, 0, 1, 0, 2.842170943040401e-14)"/>
  <path id="POLYLINE_3173_" stroke-miterlimit="10" d="M845.63 423.389c-.17-5.93-.149-12.044.573-17.935.57-4.46 1.533-8.99 3.728-12.956.819-1.48 1.832-2.87 2.951-4.137 3.316-3.738 8.046-7.717 11.79-11.071 2.245-2.043 4.464-4.241 5.941-6.92.959-1.712 1.567-3.612 1.883-5.545" style="--darkreader-inline-stroke:#c44aff; fill-rule: evenodd; fill: none; stroke-linejoin: bevel; stroke-linecap: round; stroke: url('#gradient-1-9'); stroke-width: 3.5px; paint-order: fill;" transform="matrix(1, 0, 0, 1, 0, 2.842170943040401e-14)"/>
  <path id="POLYLINE_3172_" stroke-miterlimit="10" d="M860.452 308.83c-.965-.396-1.766-1.145-2.261-2.06-.616-1.123-.838-2.422-.867-3.691-.031-1.658.268-3.318.782-4.892.927-2.84 2.594-5.427 4.74-7.5 1.184-1.125 2.531-2.214 4.076-2.786.644-.23 1.347-.323 2.023-.189 1.226.246 2.245 1.054 3.179 1.844 1.663 1.465 3.134 3.18 4.262 5.091.877 1.513 1.491 3.19 1.775 4.917.171 1.163.316 2.421-.163 3.531-.342.785-.959 1.41-1.61 1.949-1.374 1.115-2.981 1.928-4.619 2.579-2.32.896-4.776 1.519-7.261 1.693-1.361.079-2.779.036-4.056-.486z" style="--darkreader-inline-stroke:#c44aff; fill-rule: evenodd; fill: none; stroke-linejoin: bevel; stroke-linecap: round; stroke: url('#gradient-1-10'); stroke-width: 3.5px; paint-order: fill;" transform="matrix(1, 0, 0, 1, 0, 2.842170943040401e-14)"/>
  <path id="POLYLINE_3171_" stroke-miterlimit="10" d="M792.311 417.434c-1.746-.68-3.552-1.297-5.414-1.55-1.045-.132-2.144-.149-3.145.222-.498.185-.956.481-1.327.861-.407.415-.715.921-.967 1.442-.804 1.702-1.011 3.654-.762 5.509.077.536.195 1.073.394 1.578.184.468.446.907.758 1.301.467.59 1.04 1.102 1.622 1.577 2.605 2.132 13.311 8.81 16.26 10.795" style="--darkreader-inline-stroke:#c44aff; fill-rule: evenodd; fill: none; stroke-linejoin: bevel; stroke-linecap: round; stroke: url('#gradient-1-11'); stroke-width: 3.5px; paint-order: fill;" transform="matrix(1, 0, 0, 1, 0, 2.842170943040401e-14)"/>
  <path id="POLYLINE_3170_" stroke-miterlimit="10" d="M899.988 434.782c-3.813-4.101-7.873-8.209-12.224-11.738-3.854-3.101-8.112-5.94-12.945-7.214-3.36-.876-6.899-.982-10.354-.852-3.241.16-6.505.67-9.576 1.737-2.601.902-5.089 2.249-7.09 4.159-1.798 1.701-3.2 3.818-4.102 6.121-.931 2.364-1.353 4.921-1.338 7.457.018 3.242.707 6.463 1.637 9.557 1.476 4.861 3.623 9.698 5.721 14.324l7.436 15.626c.386.867.834 1.8 1.106 2.707.036.135.072.275.07.416v.018l-.001.008-.001.008-.001.008-.001.008-.001.007-.001.007-.002.007-.002.007-.002.007-.002.006-.002.006-.002.006-.002.006-.003.005-.003.005-.003.005-.003.005-.003.005-.003.004-.003.004-.004.004-.004.004-.004.003-.004.003-.004.003-.004.003-.004.003-.005.002-.005.002-.005.002-.005.002-.005.002-.005.001-.005.001-.005.001-.006.001-.006.001h-.03l-.007-.001-.007-.001-.007-.001-.007-.001-.007-.001-.007-.002-.007-.002-.007-.002-.008-.002c-.104-.031-.202-.091-.294-.149-.696-.473-1.376-1.098-2.007-1.659-6.225-5.844-12.285-12.501-17.893-18.935-7.477-8.541-18.131-22.775-25.807-31.087-1.57-1.676-3.249-3.344-5-4.83-2.493-2.086-5.286-4.068-8.537-4.692-1.344-.254-2.763-.225-4.059.24-.558.198-1.092.472-1.582.804-.648.433-1.214 1.016-1.529 1.737-.274.613-.385 1.289-.42 1.956-.045.942.089 1.895.39 2.789.429 1.305 1.243 2.454 2.236 3.393 2.301 2.164 5.756 4.261 8.369 6.069" style="--darkreader-inline-stroke:#c44aff; fill-rule: evenodd; fill: none; stroke-linejoin: bevel; stroke-linecap: round; stroke: url('#gradient-1-12'); stroke-width: 3.5px; paint-order: fill;" transform="matrix(1, 0, 0, 1, 0, 2.842170943040401e-14)"/>
  <g transform="matrix(1, 0, 0, 1, 0, 2.842170943040401e-14)">
    <path id="POLYLINE_2388_" fill="none" stroke-linecap="round" stroke-linejoin="round" stroke-miterlimit="10" d="M848.853 338.166c-2.351-.775-4.657-1.795-6.768-3.091-1.705-1.039-3.301-2.295-4.777-3.637-1.68-1.524-3.346-3.151-4.517-5.11-.77-1.276-1.359-2.696-1.888-4.087-.657-1.756-1.245-3.609-1.713-5.424-.22-.879-.441-1.815-.563-2.712-.058-.443-.093-.898-.046-1.344.039-.375.145-.745.329-1.074.217-.394.53-.729.867-1.024 1.259-1.053 2.771-1.83 4.2-2.625l5.951-3.104c.603-.341 1.244-.672 1.716-1.191.226-.253.379-.565.458-.894.073-.299.103-.618.12-.926.061-1.584.015-3.593.17-5.159.246-3.076.946-6.121 1.934-9.041 1.387-4.077 3.306-8.022 5.877-11.488 3.295-4.426 7.718-8.054 12.799-10.236 4.315-1.856 9.028-2.676 13.701-2.892 5.837-.254 11.747.376 17.504 1.316.857.144 3.573.673 4.361.739.459.044.926.044 1.384 0 1.207-.126 2.592-.497 3.776-.797 2.452-.651 9.607-2.628 11.961-3.15 1.463-.326 2.989-.649 4.485-.755 1.357-.095 2.863.003 3.946.917.596.502.998 1.193 1.316 1.895.542 1.221.904 2.563 1.239 3.855.515 2.063.922 4.23 1.182 6.341.271 2.222.372 4.497.096 6.723-.261 2.213-.902 4.381-1.709 6.453-.935 2.51-2.693 5.966-3.687 8.463-.135.359-.26.74-.327 1.119-.043.242-.06.491-.039.737.021.263.086.521.171.77.268.764.931 2.003 1.263 2.727 1.272 2.672 2.125 5.564 2.371 8.518.285 3.282-.085 6.661-1.325 9.727-1.065 2.617-2.741 4.963-4.482 7.171-1.195 1.514-2.94 3.498-4.031 5.067-.604.887-1.161 1.841-1.401 2.897-.126.548-.154 1.117-.128 1.677.037.919.208 1.842.469 2.723.766 2.526 2.034 4.934 3.26 7.264 4.046 7.636 11.32 19.512 14.65 27.379 2.01 4.666 3.536 9.603 4.426 14.607 1.492 8.548 1.425 17.349.704 25.973-.977 10.763-3.043 21.557-7.095 31.609-2.405 5.926-5.59 11.617-9.695 16.537-4.641 5.545-10.399 10.304-17.045 13.23-4.667 2.066-9.787 2.906-14.845 3.309-4.278 8.186-9.818 15.758-16.309 22.326-1.415 4.059-3.702 7.145-8.402 6.822-7.685 6.897-16.116 13.158-25.085 18.286-17.178 9.855-36.223 16.57-55.76 19.786-13.903 2.298-28.344 3.029-42.429 3.207-25.101.264-50.581-1.809-75.22-6.658-11.263-2.227-22.668-5.012-33.393-9.139-13.802-5.306-26.868-13.049-37.384-23.517-3.439-3.407-6.725-7.164-9.687-10.993-3.422-4.426-6.426-9.283-8.23-14.604-1.515-4.407-2.223-9.094-2.371-13.743-.198-6.589.741-13.234 2.676-19.533 1.748-5.725 4.242-11.27 7.115-16.516 2.659-4.942 6.674-10.717 9.794-15.424 3.308-5.112 6.486-11.242 4.988-17.49-.689-2.886-2.471-5.397-4.664-7.352-3.579-3.186-8.112-5.163-12.753-6.217-10.445-2.319-23.929-.178-33.331 4.866-5.102 2.71-9.511 6.606-13.245 10.986-7.189 8.354-13.318 20.039-20.801 28.145-3.405 3.653-7.381 6.83-11.809 9.156-1.687.872-3.439 1.73-5.274 2.242-1.122.303-2.316.458-3.462.203-.857-.186-1.652-.618-2.304-1.201-.916-.818-1.585-1.88-2.122-2.975-.939-1.945-1.552-4.049-2.038-6.149-.842-3.74-1.257-7.632-1.306-11.464-.032-3.595.265-7.235 1.122-10.732.747-3.083 1.914-6.079 3.456-8.852 1.574-2.842 3.546-5.473 5.757-7.85 14.169-15.156 36.221-20.066 56.202-21.445 7.643-.479 15.534-.349 23.165.264 6.401.539 12.963 1.377 19.221 2.839 3.527.842 7.065 1.908 10.326 3.515 2.692 1.327 5.209 3.098 7.132 5.42 1.649 1.974 2.84 4.324 3.49 6.811.425 1.609.656 3.287.528 4.951-.242 3.14-1.486 6.113-2.795 8.942-.769 1.646-1.77 3.545-2.625 5.155-3.829 6.908-9.525 17.105-12.831 24.14-2.85 6.057-5.445 12.388-7.467 18.772-1.477 4.709-2.724 9.602-2.934 14.552-.148 3.307.195 6.644.994 9.856 1.682 6.805 5.247 13.06 9.728 18.409 12.448 14.829 31.775 22.517 49.906 27.887 25.181 7.245 51.609 10.359 77.754 11.084 9.175.227 19.12.122 28.29-.33 7.525-.376 15.498-1.037 22.918-2.398 25.68-4.516 48.954-17.597 70.131-32.326-2.792-1.876-5.48-3.98-7.917-6.301-3.168-3.019-6.002-6.533-8.684-9.986-13.051-4.055-33.112-9.002-46.098-13.142-1.625-.468-3.343-1.023-5.021-1.216-.99-.119-1.998-.016-2.95.274-2.192.681-4.51 1.734-6.771 2.159-2.576.541-5.289.087-7.656-1.026-.486-.23-.982-.476-1.404-.813-.325-.258-.603-.577-.814-.935-.392-.667-.573-1.436-.682-2.195-.201-1.499-.139-3.046-.042-4.552-.691-.453-1.289-1.06-1.683-1.789-.502-.913-.681-1.966-.723-2.996-.045-1.124-.007-2.315.638-3.283.372-.574.899-1.033 1.471-1.4.796-.508 1.689-.865 2.585-1.155-.352-1.23-.37-2.558-.051-3.797.222-.862.625-1.697 1.265-2.327 1.368-1.352 3.447-1.521 5.27-1.353.765.074 1.544.219 2.295.383 3.499.776 7.968 2.287 11.414 3.372l25.965 8.796c-3.832-4.01-7.908-8.821-12.61-11.786-3.555-2.3-8.112-4.161-11.93-6.004-.788-.395-1.589-.816-2.303-1.334-.493-.36-.953-.786-1.264-1.316-.31-.523-.47-1.123-.569-1.719-.18-1.102-.008-2.235.328-3.292.451-1.416 1.166-2.749 1.94-4.013-.486-.537-.883-1.163-1.114-1.853-.413-1.269-.481-2.636-.346-3.957.122-1.106.419-2.205.945-3.19.388-.737.942-1.414 1.689-1.806 1.065-.566 2.324-.58 3.496-.443 1.901.242 3.742.871 5.521 1.563 1.304-1.17 3.074-1.751 4.816-1.693 2.578.082 4.988 1.24 7.099 2.649 2.917 1.973 5.481 4.473 7.888 7.03 3.857 4.146 7.864 9.145 11.438 13.556-1.351-4.961-2.457-10.094-2.75-15.236-.263-4.482.208-9.08 1.978-13.238 1.078-2.608 2.64-5.117 4.962-6.786 2.693-1.955 6.09-2.658 9.371-2.651 3.201-.004 6.455.494 9.6 1.061.69-3.723 1.798-7.445 3.833-10.667.743-1.185 1.622-2.307 2.556-3.347 3.257-3.613 7.919-7.559 11.57-10.824 1.383-1.265 2.797-2.61 3.982-4.063-7.341-2.554-14.537-5.756-21.116-9.913-2.401-1.513-4.816-3.237-7.047-4.995-1.799-1.384-5.126-4.313-6.879-5.817-1.095-.911-2.23-1.842-3.509-2.481-.872-.434-1.819-.723-2.783-.857-1.216-.183-2.517-.083-3.739.02-.637.034-1.299.086-1.924-.068-.168-.047-.339-.119-.455-.254-.095-.108-.138-.256-.121-.398.041-.315.248-.578.449-.812 1.043-1.108 2.613-2.045 3.781-3.017.232-.2.484-.398.667-.646.055-.079.096-.169.108-.265.019-.148-.031-.296-.099-.426-.255-.45-.661-.811-1.025-1.173l-1.47-1.367c-.506-.489-1.03-.996-1.441-1.568-.128-.184-.252-.38-.315-.597-.035-.122-.042-.255.002-.376.045-.127.14-.23.244-.313.271-.207.598-.33.918-.437.87-.285 1.876-.384 2.786-.478.596-.078 1.255-.139 1.784-.444.146-.088.274-.208.36-.356.122-.208.164-.453.17-.692.012-.521-.132-1.09-.232-1.6-.2-1.018-.351-2.074-.392-3.111-.005-.265.004-.535.068-.793.033-.126.075-.253.151-.36.064-.091.161-.16.272-.18.167-.03.337.022.491.086.248.106.477.259.694.417.558.405 1.13.929 1.644 1.39.664.613 2.259 2.115 2.933 2.751 1.193 1.107 2.527 2.12 4.084 2.646.716.248 1.477.404 2.223.531 2.81.451 6.073.665 8.918.898z" style="--darkreader-inline-stroke:#c44aff; stroke: url('#gradient-0-0'); stroke-width: 3.5px; paint-order: fill;"/>
  </g>
  <text style="fill: url('#gradient-2-3'); font-family: 'Abyssinica SIL'; font-size: 28px; paint-order: fill; stroke: url('#gradient-2-0'); stroke-width: 1.60522px; white-space: pre;" transform="matrix(2.305859088897705, 0, 0, 2.054919958114624, -975.1224365234375, -324.920654296875)" y="319.402" x="734.447">A</text>
  <text style="fill: url('#gradient-1-14'); font-family: 'Abyssinica SIL'; font-size: 28px; paint-order: fill; stroke: url('#gradient-1-13'); stroke-width: 2.17595px; white-space: pre;" transform="matrix(1.6370400190353394, 0, 0, 1.579949975013733, -523.7988891601562, -227.5296630859375)" x="803.844" y="393.724">M</text>
</svg>