<svg xmlns="http://www.w3.org/2000/svg" xmlns:bx="https://boxy-svg.com" viewBox="19.537 16.916 398.408 13.852">
  <defs>
    <linearGradient bx:pinned="true" id="a" gradientTransform="matrix(.20403 0 0 .93547 398.836548 -1.251162)" gradientUnits="userSpaceOnUse">
      <stop stop-color="#f29cbb"/>
    </linearGradient>
    <linearGradient bx:pinned="true" id="b" gradientTransform="matrix(.20403 0 0 .93547 398.836548 -1.251162)" gradientUnits="userSpaceOnUse">
      <stop stop-color="#f7b8cf"/>
    </linearGradient>
  </defs>
  <path fill="url(#a)" stroke="url(#b)" stroke-width=".5" d="M20 20h180c-3.698.156-3.502 7.236 0 6.9H20V20Zm217.5 0h180v6.9h-180c3.785-.846 2.596-7.359 0-6.9Zm-17.035 5.038c-.084.233-.131.754-.301.881-.17.124-.384.187-.641.187-.209 0-.399-.035-.572-.101-.172-.066-.329-.156-.467-.269-.138-.112-.257-.243-.362-.392-.101-.151-.187-.309-.256-.476-.068-.165-.119-.335-.152-.508-.034-.174-.05-.34-.05-.5 0-.206.019-.391.062-.554.043-.164.106-.303.191-.419.083-.114.188-.202.309-.261.121-.06.263-.09.423-.09.11 0 .21.014.298.042.085.028.159.068.224.12.064.055.118.12.163.196.005.008.009.016.013.025.011-.019.018-.037.027-.056.035-.077.064-.156.088-.235.025-.08.044-.162.06-.248.013-.085.02-.177.02-.276 0-.14-.023-.27-.07-.39-.048-.119-.113-.221-.197-.307-.084-.085-.183-.153-.303-.201-.117-.05-.246-.075-.388-.075-.137 0-.261.015-.374.046-.111.03-.216.07-.311.12-.097.049-.188.106-.273.167-.085.064-.169.129-.253.195l-.201-.268c.081-.072.168-.146.264-.224.096-.079.2-.147.318-.21.116-.061.244-.112.385-.152.143-.04.299-.06.471-.06.149 0 .281.011.401.032.119.023.232.053.336.091.105.037.207.078.305.124.097.046.197.093.298.139.103.048.203.092.296.134.096.041.191.079.285.11.094.032.19.058.285.075.094.02.194.029.297.029.154 0 .269-.028.34-.082.071-.056.108-.134.108-.235 0-.037-.003-.071-.009-.099-.006-.03-.012-.056-.019-.082l.297-.084c.03.058.053.114.072.169.018.056.023.113.023.173 0 .107-.018.2-.059.285-.041.083-.096.152-.166.209-.068.059-.15.102-.244.133-.094.031-.197.045-.303.045-.117 0-.233-.011-.344-.032-.112-.02-.224-.051-.339-.092-.113-.039-.231-.088-.354-.147-.123-.058-.254-.125-.395-.201.064.098.107.198.133.302.026.103.038.218.038.342 0 .196-.031.391-.092.591-.03.088-.063.177-.106.262.048-.031.093-.062.139-.087.133-.075.279-.112.446-.112.132 0 .252.021.361.064.107.044.199.104.272.18.077.075.133.166.173.272.041.106.061.222.061.348 0 .159-.019.297-.055.413-.037.114-.097.217-.177.303-.08.087-.185.161-.311.225-.126.063-.277.12-.455.172-.138.041-.248.079-.33.119-.083.038-.149.078-.194.12-.045.042-.076.086-.09.13-.017.044-.026.092-.026.144 0 .042.007.083.02.122.011.041.032.076.059.107.026.03.06.054.102.075.041.017.091.027.15.027.104 0 .188-.029.251-.087.064-.057.118-.135.162-.229l.213-.204Zm-8.119 4.578c-1.384-.762-2.552-1.657-3.506-2.681-.956-1.022-1.434-2.081-1.434-3.181 0-.966.356-1.891 1.071-2.776.835-1.029 2.126-2.05 3.869-3.071h1.795c-1.119.844-1.867 1.447-2.227 1.81-.567.56-1.009 1.143-1.337 1.754-.395.758-.597 1.522-.597 2.291 0 1.953 1.388 3.904 4.161 5.854h-1.795Zm14.259 0h-1.796c2.775-1.95 4.162-3.901 4.162-5.854 0-.764-.201-1.521-.595-2.274-.318-.609-.761-1.192-1.325-1.754-.361-.365-1.107-.974-2.242-1.827h1.796c1.747 1.021 3.032 2.042 3.87 3.071.715.885 1.071 1.81 1.071 2.776 0 1.1-.481 2.159-1.442 3.181-.958 1.024-2.127 1.919-3.499 2.681Z"/>
</svg>
